<svg id="Layer_1" data-name="Layer 1" xmlns="http://www.w3.org/2000/svg" viewBox="0 0 81.58 55.54"><defs><style>.cls-1{fill:#346275;}.cls-1,.cls-2,.cls-3{fill-rule:evenodd;}.cls-2{fill:#3d7d91;}.cls-3{fill:#4994a5;}</style></defs><path class="cls-1" d="M3.05,55.61h1.2V41.87H3.05ZM13,41.87a9.36,9.36,0,0,1,3.09.49,6.51,6.51,0,0,1,2.33,1.37,6,6,0,0,1,1.49,2.16,8.07,8.07,0,0,1,0,5.7,6,6,0,0,1-1.49,2.17,6.65,6.65,0,0,1-2.33,1.37,9.36,9.36,0,0,1-3.09.48H8V41.87ZM9.16,43V54.47H13a8,8,0,0,0,2.65-.4,5.47,5.47,0,0,0,1.93-1.16,4.84,4.84,0,0,0,1.19-1.8,6.62,6.62,0,0,0,.4-2.37,6.53,6.53,0,0,0-.4-2.36,4.88,4.88,0,0,0-1.19-1.81,5.17,5.17,0,0,0-1.93-1.15A8,8,0,0,0,13,43Zm25.16-1.29a7.41,7.41,0,0,1,1.71.19,6.59,6.59,0,0,1,1.54.57,5.93,5.93,0,0,1,1.31.89,5.26,5.26,0,0,1,1,1.17l-1,.67a4.54,4.54,0,0,0-.84-1A5.36,5.36,0,0,0,37,43.5,5.64,5.64,0,0,0,35.71,43a5.81,5.81,0,0,0-1.39-.16A6.08,6.08,0,0,0,32,43.3,5.34,5.34,0,0,0,29,46.35a6.6,6.6,0,0,0,0,4.79,5.42,5.42,0,0,0,3.06,3,6.08,6.08,0,0,0,2.28.42,5.67,5.67,0,0,0,1.38-.16A4.79,4.79,0,0,0,37,54,5.32,5.32,0,0,0,38,53.26a4.59,4.59,0,0,0,.84-1l1,.71a5.58,5.58,0,0,1-1,1.16,6.15,6.15,0,0,1-1.3.87,6.89,6.89,0,0,1-1.52.56,7.89,7.89,0,0,1-1.69.19,7.33,7.33,0,0,1-2.79-.52,6.6,6.6,0,0,1-3.71-3.67,7.71,7.71,0,0,1,0-5.67,6.6,6.6,0,0,1,3.71-3.67,7.33,7.33,0,0,1,2.79-.52ZM43.55,48a3.86,3.86,0,0,1,.65-.79,3.46,3.46,0,0,1,.79-.54,4.1,4.1,0,0,1,.91-.32,5,5,0,0,1,.94-.1,4.67,4.67,0,0,1,1.58.26,3.46,3.46,0,0,1,1.23.74,3.34,3.34,0,0,1,.8,1.17A4.28,4.28,0,0,1,50.73,50v5.66H49.61V50.29a3.77,3.77,0,0,0-.2-1.25,2.41,2.41,0,0,0-.58-.95,2.35,2.35,0,0,0-.93-.59,3.54,3.54,0,0,0-1.26-.21,3.25,3.25,0,0,0-1.21.22,3.05,3.05,0,0,0-1,.63,3,3,0,0,0-.66,1,3.15,3.15,0,0,0-.24,1.24v5.26H42.43V41.48h1.12Zm13.83-1.75a4.25,4.25,0,0,1,1.71.35,4,4,0,0,1,1.36,1A4.49,4.49,0,0,1,61.36,49a5.3,5.3,0,0,1,.34,1.9v.24c0,.08,0,.15,0,.22H53.94a3.91,3.91,0,0,0,.36,1.43,3.4,3.4,0,0,0,.78,1.07,3.27,3.27,0,0,0,1.11.66,3.83,3.83,0,0,0,1.33.23,4,4,0,0,0,1.73-.36,4.81,4.81,0,0,0,1.39-1l.59.77a5.29,5.29,0,0,1-.89.73,4.35,4.35,0,0,1-.94.47,4.68,4.68,0,0,1-1,.25,6.59,6.59,0,0,1-1,.07,4.94,4.94,0,0,1-1.87-.35,4.32,4.32,0,0,1-2.43-2.48A5.18,5.18,0,0,1,52.81,51a5.24,5.24,0,0,1,.34-1.92,4.72,4.72,0,0,1,1-1.51,4.35,4.35,0,0,1,1.45-1,4.71,4.71,0,0,1,1.81-.35Zm0,1a3.26,3.26,0,0,0-2.32.91,3.47,3.47,0,0,0-.72,1A4.1,4.1,0,0,0,54,50.44h6.61a3.94,3.94,0,0,0-.33-1.31,3.12,3.12,0,0,0-.69-1,2.83,2.83,0,0,0-1-.66,3.07,3.07,0,0,0-1.21-.24Zm10.78-1a4.82,4.82,0,0,1,1.91.37,4.1,4.1,0,0,1,1.5,1.06l-.73.76a4,4,0,0,0-1.21-.84,3.65,3.65,0,0,0-1.5-.3,3.51,3.51,0,0,0-1.41.28,3.51,3.51,0,0,0-1.88,1.95,4.25,4.25,0,0,0,0,3,3.45,3.45,0,0,0,1.88,1.94,3.51,3.51,0,0,0,1.41.28,3.79,3.79,0,0,0,1.52-.31,4.15,4.15,0,0,0,1.22-.84l.7.77A4.14,4.14,0,0,1,70,55.39a4.74,4.74,0,0,1-1.9.37,5,5,0,0,1-1.91-.36,4.7,4.7,0,0,1-1.49-1,4.53,4.53,0,0,1-1-1.51,5.28,5.28,0,0,1,0-3.78,4.33,4.33,0,0,1,1-1.51,4.57,4.57,0,0,1,1.49-1,5,5,0,0,1,1.91-.36Zm6.77,4h1.5l3.89-3.89h1.41l-4.39,4.36,4.47,4.87H80.37l-4-4.33h-1.5v4.33H73.79V41.48h1.12Z" transform="translate(-0.21 -0.23)"/><polygon class="cls-2" points="13.6 20.57 23.68 20.57 23.68 2.46 13.6 2.46 13.6 20.57"/><path class="cls-1" d="M14.45,11.75a11.51,11.51,0,0,1,4.4-9.06,11.52,11.52,0,1,0,0,18.12,11.51,11.51,0,0,1-4.4-9.06" transform="translate(-0.21 -0.23)"/><path class="cls-3" d="M37.48,11.75a11.52,11.52,0,0,1-18.63,9.06,11.53,11.53,0,0,0,0-18.12,11.52,11.52,0,0,1,18.63,9.06" transform="translate(-0.21 -0.23)"/></svg>